<svg width="20" height="27" viewBox="0 0 20 27" fill="none" xmlns="http://www.w3.org/2000/svg">
<path fill-rule="evenodd" clip-rule="evenodd" d="M13.2272 1H6.77278C5.71843 1 4.74695 1.53325 4.23491 2.39305L4.00898 2.77242C3.75011 3.20711 3.36593 3.5655 2.89996 3.80699C1.77749 4.38872 1.20955 5.59802 1.51207 6.76216L2.16129 9.26042V9.26042C7.29092 10.6783 12.7091 10.6783 17.8387 9.26042V9.26042L18.4879 6.76216C18.7905 5.59802 18.2225 4.38872 17.1 3.80699C16.6341 3.5655 16.2499 3.20711 15.991 2.77242L15.7651 2.39305C15.2531 1.53325 14.2816 1 13.2272 1ZM18.4194 14.2031V14.2031C12.8964 15.6244 7.10357 15.6244 1.58065 14.2031V14.2031L1.15825 17.7988C1.05864 18.6467 1.39308 19.4889 2.06084 20.0716L8.01664 25.2692C9.13276 26.2432 10.8672 26.2432 11.9834 25.2692L17.9392 20.0716C18.6069 19.4889 18.9414 18.6467 18.8418 17.7988L18.4194 14.2031Z" fill="#B73DE3"/>
<path d="M17.8387 9.26042C12.7091 10.6783 7.29092 10.6783 2.16129 9.26042V9.26042L1.58065 14.2031V14.2031C7.10357 15.6244 12.8964 15.6244 18.4194 14.2031V14.2031L17.8387 9.26042V9.26042Z" fill="#772695"/>
<path d="M17.8387 9.26042V9.26042C12.7091 10.6783 7.29092 10.6783 2.16129 9.26042V9.26042M17.8387 9.26042L18.4194 14.2031M17.8387 9.26042L18.4879 6.76216M2.16129 9.26042L1.58065 14.2031M2.16129 9.26042L1.51207 6.76216M18.4194 14.2031V14.2031C12.8964 15.6244 7.10357 15.6244 1.58065 14.2031V14.2031M18.4194 14.2031L18.8418 17.7988M1.58065 14.2031L1.15825 17.7988M6.77278 1H13.2272M6.77278 1C5.71843 1 4.74695 1.53325 4.23491 2.39305M6.77278 1H6.68589C5.6805 1 4.74934 1.52924 4.23491 2.39305V2.39305M13.2272 1C14.2816 1 15.2531 1.53325 15.7651 2.39305M13.2272 1H13.3141C14.3195 1 15.2507 1.52924 15.7651 2.39305V2.39305M15.7651 2.39305L15.991 2.77242M15.991 2.77242C16.2499 3.20711 16.6341 3.5655 17.1 3.80699M15.991 2.77242V2.77242C16.2499 3.20714 16.6251 3.56087 17.0744 3.79369L17.1 3.80699M17.1 3.80699C18.2225 4.38872 18.7905 5.59802 18.4879 6.76216M17.1 3.80699L17.1924 3.85485C18.2498 4.40287 18.7875 5.60947 18.4879 6.76216V6.76216M18.8418 17.7988C18.9414 18.6467 18.6069 19.4889 17.9392 20.0716M18.8418 17.7988V17.7988C18.9408 18.6418 18.6177 19.4795 17.9781 20.0377L17.9392 20.0716M17.9392 20.0716L11.9834 25.2692M11.9834 25.2692C10.8672 26.2432 9.13276 26.2432 8.01664 25.2692M11.9834 25.2692V25.2692C10.847 26.2608 9.15295 26.2608 8.01664 25.2692V25.2692M8.01664 25.2692L2.06084 20.0716M2.06084 20.0716C1.39308 19.4889 1.05864 18.6467 1.15825 17.7988M2.06084 20.0716L2.02192 20.0377C1.38235 19.4795 1.05921 18.6418 1.15825 17.7988V17.7988M1.51207 6.76216C1.20955 5.59802 1.77749 4.38872 2.89996 3.80699M1.51207 6.76216V6.76216C1.21252 5.60947 1.7502 4.40287 2.80761 3.85485L2.89996 3.80699M2.89996 3.80699C3.36593 3.5655 3.75011 3.20711 4.00898 2.77242M2.89996 3.80699L2.92563 3.79369C3.37486 3.56087 3.75009 3.20714 4.00898 2.77242V2.77242M4.00898 2.77242L4.23491 2.39305" stroke="white" stroke-width="0.5"/>
</svg>
