<svg width="56" height="44" viewBox="0 0 56 44" fill="none" xmlns="http://www.w3.org/2000/svg">
<path d="M38.8016 13.2144L45.391 15.7288L46.0688 15.0381C46.1339 14.9718 46.1929 14.9023 46.246 14.8303C46.9797 13.8349 46.5781 12.3515 45.3799 11.9153L39.3502 9.72021C38.9685 9.58123 38.5617 9.57579 38.1885 9.69035C38.1586 9.69953 38.1289 9.70949 38.0994 9.72021L38.6388 12.0879L38.8016 13.2144Z" fill="#E3D03D"/>
<path d="M25.1449 7.94753L31.7343 10.4618L32.2034 9.98385C32.2552 9.93104 32.3032 9.87624 32.3474 9.81974C33.1249 8.82582 32.7314 7.30698 31.518 6.86235L25.5374 4.67083C25.1946 4.54522 24.8313 4.52737 24.4901 4.60768L25.1003 7.71712L25.1449 7.94753Z" fill="#E3D03D"/>
<path d="M14.3641 18.9327L20.9535 21.447L21.3617 21.031C22.3179 20.0567 21.9656 18.4012 20.6992 17.918L16.469 16.3039L14.7409 15.6445C14.4424 15.5306 14.1273 15.4991 13.8242 15.5436C13.8159 15.5448 13.8075 15.5461 13.7992 15.5474C13.7978 15.5476 13.7963 15.5479 13.7948 15.5481L14.2836 18.5306L14.3641 18.9327Z" fill="#E3D03D"/>
<path fill-rule="evenodd" clip-rule="evenodd" d="M52.4669 10.1671L24.5656 0.108511C23.8903 -0.134939 23.1378 0.038675 22.6313 0.55479L1.04504 22.5502C0.616957 22.9864 0.451021 23.5596 0.512317 24.1029C0.587389 24.7683 1.00331 25.389 1.69595 25.6587L5.74214 27.234L29.0262 36.2992C29.711 36.5659 30.4856 36.3974 31.004 35.8693L50.2389 16.2698L53.1613 13.2919C53.499 12.9478 53.6733 12.5194 53.7021 12.0879C53.7559 11.2842 53.3054 10.4694 52.4669 10.1671ZM28.2634 31.6034L22.8164 29.5027L22.3225 29.3122C21.0604 28.8255 20.7119 27.1738 21.6661 26.2016L26.4781 21.2984C26.7191 21.0528 27.0157 20.8849 27.333 20.8025C27.3509 20.7978 27.3689 20.7934 27.387 20.7893C27.7311 20.7109 28.0969 20.7321 28.4409 20.8624C30.5895 21.6763 32.6213 22.443 34.4037 23.1115C35.6796 23.59 36.0409 25.2561 35.0796 26.2357L34.6102 26.7139L30.2357 31.1713C29.7189 31.698 28.9471 31.8671 28.2634 31.6034ZM14.6067 26.3365L9.15961 24.2358L8.81504 24.1029L8.66568 24.0453C7.40366 23.5586 7.05514 21.9069 8.00931 20.9347L12.7747 16.079C13.0572 15.7911 13.4159 15.61 13.7948 15.5481C13.7963 15.5479 13.7978 15.5476 13.7992 15.5474C13.8075 15.5461 13.8159 15.5448 13.8242 15.5436C14.1273 15.4991 14.4424 15.5306 14.7409 15.6445L16.469 16.3039L20.6992 17.918C21.9656 18.4012 22.3179 20.0567 21.3617 21.031L20.9535 21.447L16.579 25.9044C16.0621 26.4311 15.2903 26.6002 14.6067 26.3365ZM31.7343 10.4618L27.387 14.8915C26.8753 15.4129 26.1132 15.5843 25.4337 15.3308L19.9179 13.2736L19.5702 13.1439L19.4541 13.1006C18.1758 12.6238 17.8175 10.9547 18.7838 9.97764L23.5991 5.10868C23.8378 4.86739 24.1303 4.70176 24.4432 4.61935C24.4588 4.61526 24.4744 4.61136 24.4901 4.60768C24.8313 4.52737 25.1946 4.54522 25.5374 4.67083L31.518 6.86235C32.7314 7.30698 33.1249 8.82582 32.3474 9.81974C32.3032 9.87624 32.2552 9.93104 32.2034 9.98385L31.7343 10.4618ZM45.391 15.7288L41.1683 20.0315C40.6566 20.5529 39.8945 20.7243 39.215 20.4709L33.6992 18.4136L33.2483 18.2455C31.9754 17.7707 31.6132 16.1121 32.5684 15.1322L36.3426 11.2601L37.406 10.1691C37.6053 9.96466 37.8431 9.81349 38.0994 9.72021C38.1289 9.70949 38.1586 9.69953 38.1885 9.69035C38.5617 9.57579 38.9685 9.58123 39.3502 9.72021L45.3799 11.9153C46.5781 12.3515 46.9797 13.8349 46.246 14.8303C46.1929 14.9023 46.1339 14.9718 46.0688 15.0381L45.391 15.7288Z" fill="#FFD388"/>
<path d="M50.2389 16.2698L31.004 35.8693C30.4856 36.3974 29.711 36.5659 29.0262 36.2992L5.74214 27.234L1.69595 25.6587C1.00331 25.389 0.587389 24.7683 0.512317 24.1029L0.523117 24.2259C0.771718 27.0591 0.917129 28.7163 2.27696 31.5764V31.5764C2.35181 31.7338 2.40141 31.9019 2.45561 32.0675V32.0675C2.62223 32.5769 2.9996 33.0185 3.5547 33.2347L30.8849 43.8752C31.5697 44.1418 32.3443 43.9734 32.8627 43.4452L55.0201 20.8679C55.1896 20.6951 55.3179 20.5011 55.4074 20.2962C55.4817 20.1258 55.4976 19.9365 55.4917 19.7502C55.3935 16.673 55.0898 14.9242 53.7021 12.0879C53.6733 12.5194 53.499 12.9478 53.1613 13.2919L50.2389 16.2698Z" fill="url(#paint0_linear_47_21)"/>
<path d="M45.391 15.7288L38.8016 13.2144L33.6992 18.4136L39.215 20.4709C39.8945 20.7243 40.6566 20.5529 41.1683 20.0315L45.391 15.7288Z" fill="#D9E84F"/>
<path fill-rule="evenodd" clip-rule="evenodd" d="M2.27696 31.5764C2.33995 31.7089 2.38526 31.8496 2.43041 31.9897L2.43047 31.9899C2.43882 32.0158 2.44716 32.0417 2.45561 32.0675V32.0675C2.40141 31.9019 2.35181 31.7338 2.27696 31.5764V31.5764ZM25.1003 7.71712L24.4901 4.60768C24.8313 4.52737 25.1946 4.54522 25.5374 4.67083L31.518 6.86235C32.7314 7.30698 33.1249 8.82582 32.3474 9.81974C32.3032 9.87624 32.2552 9.93104 32.2034 9.98385L31.7343 10.4618L25.1449 7.94753L25.1003 7.71712ZM38.0994 9.72021L38.6388 12.0879L38.8016 13.2144L45.391 15.7288L46.0688 15.0381C46.1339 14.9718 46.1929 14.9023 46.246 14.8303C46.9797 13.8349 46.5781 12.3515 45.3799 11.9153L39.3502 9.72021C38.9685 9.58123 38.5617 9.57579 38.1885 9.69035C38.1586 9.69953 38.1289 9.70949 38.0994 9.72021ZM20.9535 21.447L21.3617 21.031C22.3179 20.0567 21.9656 18.4012 20.6992 17.918L16.469 16.3039L14.7409 15.6445C14.4424 15.5306 14.1273 15.4991 13.8242 15.5436C13.8159 15.5448 13.8075 15.5461 13.7992 15.5474L13.7948 15.5481L14.2836 18.5306L14.3641 18.9327L20.9535 21.447Z" fill="#E3D03D"/>
<path d="M28.0208 24.1996L34.6102 26.7139L35.0796 26.2357C36.0409 25.2561 35.6796 23.59 34.4037 23.1115C32.6213 22.443 30.5895 21.6763 28.4409 20.8624C28.0969 20.7321 27.7311 20.7109 27.387 20.7893L28.0208 24.1996Z" fill="#E3D03D"/>
<path d="M34.6102 26.7139L28.0208 24.1996L22.8164 29.5027L28.2634 31.6034C28.9471 31.8671 29.7189 31.698 30.2357 31.1713L34.6102 26.7139Z" fill="#D9E84F"/>
<path d="M20.9535 21.447L14.3641 18.9327L9.15961 24.2358L14.6067 26.3365C15.2903 26.6002 16.0621 26.4311 16.579 25.9044L20.9535 21.447Z" fill="#D9E84F"/>
<path d="M25.1449 7.94753L19.9179 13.2736L25.4337 15.3308C26.1132 15.5843 26.8753 15.4129 27.387 14.8915L31.7343 10.4618L25.1449 7.94753Z" fill="#D9E84F"/>
<path d="M19.9179 13.2736L25.1449 7.94753L25.1003 7.71712L24.4901 4.60768C24.4744 4.61136 24.4588 4.61526 24.4432 4.61935C24.1303 4.70176 23.8378 4.86739 23.5991 5.10868L18.7838 9.97764C17.8175 10.9547 18.1758 12.6238 19.4541 13.1006L19.5702 13.1439L19.9179 13.2736Z" fill="#A79C23"/>
<path d="M9.15961 24.2358L14.3641 18.9327L14.2836 18.5306L13.7948 15.5481C13.4159 15.61 13.0572 15.7911 12.7747 16.079L8.00931 20.9347C7.05514 21.9069 7.40366 23.5586 8.66568 24.0453L8.81504 24.1029L9.15961 24.2358Z" fill="#A79C23"/>
<path d="M22.8164 29.5027L28.0208 24.1996L27.387 20.7893C27.3689 20.7934 27.3509 20.7978 27.333 20.8025C27.0157 20.8849 26.7191 21.0528 26.4781 21.2984L21.6661 26.2016C20.7119 27.1738 21.0604 28.8255 22.3225 29.3122L22.8164 29.5027Z" fill="#A79C23"/>
<path d="M33.6992 18.4136L38.8016 13.2144L38.6388 12.0879L38.0994 9.72021C37.8431 9.81349 37.6053 9.96466 37.406 10.1691L36.3426 11.2601L32.5684 15.1322C31.6132 16.1121 31.9754 17.7707 33.2483 18.2455L33.6992 18.4136Z" fill="#A79C23"/>
<defs>
<linearGradient id="paint0_linear_47_21" x1="-2.0046" y1="37.1163" x2="61.4962" y2="30.7292" gradientUnits="userSpaceOnUse">
<stop stop-color="#E3DB3D"/>
<stop offset="1" stop-color="#A79C23"/>
</linearGradient>
</defs>
</svg>
