<svg width="55" height="44" viewBox="0 0 55 44" fill="none" xmlns="http://www.w3.org/2000/svg">
<path d="M38.3016 13.2144L44.891 15.7288L45.5688 15.0381C45.6339 14.9718 45.6929 14.9023 45.746 14.8303C46.4797 13.8349 46.0781 12.3515 44.8799 11.9153L38.8502 9.72021C38.4685 9.58123 38.0617 9.57579 37.6885 9.69035C37.6586 9.69953 37.6289 9.70949 37.5994 9.72021L38.1388 12.0879L38.3016 13.2144Z" fill="#E0E0E0"/>
<path d="M24.6449 7.94753L31.2343 10.4618L31.7034 9.98385C31.7552 9.93104 31.8032 9.87624 31.8474 9.81974C32.6249 8.82582 32.2314 7.30698 31.018 6.86235L25.0374 4.67083C24.6946 4.54522 24.3313 4.52737 23.9901 4.60768L24.6003 7.71712L24.6449 7.94753Z" fill="#E0E0E0"/>
<path d="M13.8641 18.9327L20.4535 21.447L20.8617 21.031C21.8179 20.0567 21.4656 18.4012 20.1992 17.918L15.969 16.3039L14.2409 15.6445C13.9424 15.5306 13.6273 15.4991 13.3242 15.5436C13.3159 15.5448 13.3075 15.5461 13.2992 15.5474C13.2978 15.5476 13.2963 15.5479 13.2948 15.5481L13.7836 18.5306L13.8641 18.9327Z" fill="#E0E0E0"/>
<path fill-rule="evenodd" clip-rule="evenodd" d="M51.9669 10.1671L24.0656 0.108511C23.3903 -0.134939 22.6378 0.038675 22.1313 0.55479L0.54504 22.5502C0.116957 22.9864 -0.0489793 23.5596 0.0123166 24.1029C0.087389 24.7683 0.503314 25.389 1.19595 25.6587L5.24214 27.234L28.5262 36.2992C29.211 36.5659 29.9856 36.3974 30.504 35.8693L49.7389 16.2698L52.6613 13.2919C52.999 12.9478 53.1733 12.5194 53.2021 12.0879C53.2559 11.2842 52.8054 10.4694 51.9669 10.1671ZM27.7634 31.6034L22.3164 29.5027L21.8225 29.3122C20.5604 28.8255 20.2119 27.1738 21.1661 26.2016L25.9781 21.2984C26.2191 21.0528 26.5157 20.8849 26.833 20.8025C26.8509 20.7978 26.8689 20.7934 26.887 20.7893C27.2311 20.7109 27.5969 20.7321 27.9409 20.8624C30.0895 21.6763 32.1213 22.443 33.9037 23.1115C35.1796 23.59 35.5409 25.2561 34.5796 26.2357L34.1102 26.7139L29.7357 31.1713C29.2189 31.698 28.4471 31.8671 27.7634 31.6034ZM14.1067 26.3365L8.65961 24.2358L8.31504 24.1029L8.16568 24.0453C6.90366 23.5586 6.55514 21.9069 7.50931 20.9347L12.2747 16.079C12.5572 15.7911 12.9159 15.61 13.2948 15.5481C13.2963 15.5479 13.2978 15.5476 13.2992 15.5474C13.3075 15.5461 13.3159 15.5448 13.3242 15.5436C13.6273 15.4991 13.9424 15.5306 14.2409 15.6445L15.969 16.3039L20.1992 17.918C21.4656 18.4012 21.8179 20.0567 20.8617 21.031L20.4535 21.447L16.079 25.9044C15.5621 26.4311 14.7903 26.6002 14.1067 26.3365ZM31.2343 10.4618L26.887 14.8915C26.3753 15.4129 25.6132 15.5843 24.9337 15.3308L19.4179 13.2736L19.0702 13.1439L18.9541 13.1006C17.6758 12.6238 17.3175 10.9547 18.2838 9.97764L23.0991 5.10868C23.3378 4.86739 23.6303 4.70176 23.9432 4.61935C23.9588 4.61526 23.9744 4.61136 23.9901 4.60768C24.3313 4.52737 24.6946 4.54522 25.0374 4.67083L31.018 6.86235C32.2314 7.30698 32.6249 8.82582 31.8474 9.81974C31.8032 9.87624 31.7552 9.93104 31.7034 9.98385L31.2343 10.4618ZM44.891 15.7288L40.6683 20.0315C40.1566 20.5529 39.3945 20.7243 38.715 20.4709L33.1992 18.4136L32.7483 18.2455C31.4754 17.7707 31.1132 16.1121 32.0684 15.1322L35.8426 11.2601L36.906 10.1691C37.1053 9.96466 37.3431 9.81349 37.5994 9.72021C37.6289 9.70949 37.6586 9.69953 37.6885 9.69035C38.0617 9.57579 38.4685 9.58123 38.8502 9.72021L44.8799 11.9153C46.0781 12.3515 46.4797 13.8349 45.746 14.8303C45.6929 14.9023 45.6339 14.9718 45.5688 15.0381L44.891 15.7288Z" fill="#CACACA"/>
<path d="M49.7389 16.2698L30.504 35.8693C29.9856 36.3974 29.211 36.5659 28.5262 36.2992L5.24214 27.234L1.19595 25.6587C0.503314 25.389 0.087389 24.7683 0.0123166 24.1029L0.0231167 24.2259C0.271718 27.0591 0.417129 28.7163 1.77696 31.5764V31.5764C1.85181 31.7338 1.90141 31.9019 1.95561 32.0675V32.0675C2.12223 32.5769 2.4996 33.0185 3.0547 33.2347L30.3849 43.8752C31.0697 44.1418 31.8443 43.9734 32.3627 43.4452L54.5201 20.8679C54.6896 20.6951 54.8179 20.5011 54.9074 20.2962C54.9817 20.1258 54.9976 19.9365 54.9917 19.7502C54.8935 16.673 54.5898 14.9242 53.2021 12.0879C53.1733 12.5194 52.999 12.9478 52.6613 13.2919L49.7389 16.2698Z" fill="url(#paint0_linear_47_23)"/>
<path d="M44.891 15.7288L38.3016 13.2144L33.1992 18.4136L38.715 20.4709C39.3945 20.7243 40.1566 20.5529 40.6683 20.0315L44.891 15.7288Z" fill="#E6E6E6"/>
<path fill-rule="evenodd" clip-rule="evenodd" d="M1.77696 31.5764C1.83995 31.7089 1.88526 31.8496 1.93041 31.9897L1.93047 31.9899C1.93882 32.0158 1.94716 32.0417 1.95561 32.0675V32.0675C1.90141 31.9019 1.85181 31.7338 1.77696 31.5764V31.5764ZM24.6003 7.71712L23.9901 4.60768C24.3313 4.52737 24.6946 4.54522 25.0374 4.67083L31.018 6.86235C32.2314 7.30698 32.6249 8.82582 31.8474 9.81974C31.8032 9.87624 31.7552 9.93104 31.7034 9.98385L31.2343 10.4618L24.6449 7.94753L24.6003 7.71712ZM37.5994 9.72021L38.1388 12.0879L38.3016 13.2144L44.891 15.7288L45.5688 15.0381C45.6339 14.9718 45.6929 14.9023 45.746 14.8303C46.4797 13.8349 46.0781 12.3515 44.8799 11.9153L38.8502 9.72021C38.4685 9.58123 38.0617 9.57579 37.6885 9.69035C37.6586 9.69953 37.6289 9.70949 37.5994 9.72021ZM20.4535 21.447L20.8617 21.031C21.8179 20.0567 21.4656 18.4012 20.1992 17.918L15.969 16.3039L14.2409 15.6445C13.9424 15.5306 13.6273 15.4991 13.3242 15.5436C13.3159 15.5448 13.3075 15.5461 13.2992 15.5474L13.2948 15.5481L13.7836 18.5306L13.8641 18.9327L20.4535 21.447Z" fill="#E0E0E0"/>
<path d="M27.5208 24.1996L34.1102 26.7139L34.5796 26.2357C35.5409 25.2561 35.1796 23.59 33.9037 23.1115C32.1213 22.443 30.0895 21.6763 27.9409 20.8624C27.5969 20.7321 27.2311 20.7109 26.887 20.7893L27.5208 24.1996Z" fill="#E0E0E0"/>
<path d="M34.1102 26.7139L27.5208 24.1996L22.3164 29.5027L27.7634 31.6034C28.4471 31.8671 29.2189 31.698 29.7357 31.1713L34.1102 26.7139Z" fill="#E6E6E6"/>
<path d="M20.4535 21.447L13.8641 18.9327L8.65961 24.2358L14.1067 26.3365C14.7903 26.6002 15.5621 26.4311 16.079 25.9044L20.4535 21.447Z" fill="#E6E6E6"/>
<path d="M24.6449 7.94753L19.4179 13.2736L24.9337 15.3308C25.6132 15.5843 26.3753 15.4129 26.887 14.8915L31.2343 10.4618L24.6449 7.94753Z" fill="#E6E6E6"/>
<path d="M19.4179 13.2736L24.6449 7.94753L24.6003 7.71712L23.9901 4.60768C23.9744 4.61136 23.9588 4.61526 23.9432 4.61935C23.6303 4.70176 23.3378 4.86739 23.0991 5.10868L18.2838 9.97764C17.3175 10.9547 17.6758 12.6238 18.9541 13.1006L19.0702 13.1439L19.4179 13.2736Z" fill="#ABABAB"/>
<path d="M8.65961 24.2358L13.8641 18.9327L13.7836 18.5306L13.2948 15.5481C12.9159 15.61 12.5572 15.7911 12.2747 16.079L7.50931 20.9347C6.55514 21.9069 6.90366 23.5586 8.16568 24.0453L8.31504 24.1029L8.65961 24.2358Z" fill="#ABABAB"/>
<path d="M22.3164 29.5027L27.5208 24.1996L26.887 20.7893C26.8689 20.7934 26.8509 20.7978 26.833 20.8025C26.5157 20.8849 26.2191 21.0528 25.9781 21.2984L21.1661 26.2016C20.2119 27.1738 20.5604 28.8255 21.8225 29.3122L22.3164 29.5027Z" fill="#ABABAB"/>
<path d="M33.1992 18.4136L38.3016 13.2144L38.1388 12.0879L37.5994 9.72021C37.3431 9.81349 37.1053 9.96466 36.906 10.1691L35.8426 11.2601L32.0684 15.1322C31.1132 16.1121 31.4754 17.7707 32.7483 18.2455L33.1992 18.4136Z" fill="#ABABAB"/>
<defs>
<linearGradient id="paint0_linear_47_23" x1="-2.5046" y1="37.1163" x2="60.9962" y2="30.7292" gradientUnits="userSpaceOnUse">
<stop stop-color="#E5E5E5"/>
<stop offset="1" stop-color="#B9B9B9"/>
</linearGradient>
</defs>
</svg>
