<svg width="56" height="45" viewBox="0 0 56 45" fill="none" xmlns="http://www.w3.org/2000/svg">
<path d="M38.8016 13.7144L45.391 16.2288L46.0688 15.5381C46.1339 15.4718 46.1929 15.4023 46.246 15.3303C46.9797 14.3349 46.5781 12.8515 45.3799 12.4153L39.3502 10.2202C38.9684 10.0812 38.5617 10.0758 38.1885 10.1903C38.1586 10.1995 38.1289 10.2095 38.0994 10.2202L38.6388 12.5879L38.8016 13.7144Z" fill="#E3823D"/>
<path d="M25.1449 8.44753L31.7343 10.9618L32.2034 10.4838C32.2552 10.431 32.3032 10.3762 32.3474 10.3197C33.1249 9.32582 32.7314 7.80698 31.518 7.36235L25.5374 5.17083C25.1946 5.04522 24.8313 5.02737 24.4901 5.10768L25.1003 8.21712L25.1449 8.44753Z" fill="#E3823D"/>
<path d="M14.3641 19.4327L20.9535 21.947L21.3617 21.531C22.3179 20.5567 21.9656 18.9012 20.6992 18.418L16.469 16.8039L14.7409 16.1445C14.4424 16.0306 14.1273 15.9991 13.8242 16.0436C13.8159 16.0448 13.8075 16.0461 13.7992 16.0474L13.7948 16.0481L14.2836 19.0306L14.3641 19.4327Z" fill="#E3823D"/>
<path fill-rule="evenodd" clip-rule="evenodd" d="M52.4669 10.6671L24.5656 0.608511C23.8903 0.365061 23.1378 0.538675 22.6313 1.05479L1.04504 23.0502C0.616957 23.4864 0.451021 24.0596 0.512317 24.6029C0.587389 25.2683 1.00331 25.889 1.69595 26.1587L5.74214 27.734L29.0262 36.7992C29.711 37.0659 30.4856 36.8974 31.004 36.3693L50.2389 16.7698L53.1613 13.7919C53.499 13.4478 53.6733 13.0194 53.7021 12.5879C53.7559 11.7842 53.3054 10.9694 52.4669 10.6671ZM28.2634 32.1034L22.8164 30.0027L22.3225 29.8122C21.0604 29.3255 20.7119 27.6738 21.6661 26.7016L26.4781 21.7984C26.7191 21.5528 27.0157 21.3849 27.333 21.3025C27.3509 21.2978 27.3689 21.2934 27.387 21.2893C27.7311 21.2109 28.0969 21.2321 28.4409 21.3624C30.5895 22.1763 32.6213 22.943 34.4037 23.6115C35.6796 24.09 36.0409 25.7561 35.0796 26.7357L34.6102 27.2139L30.2357 31.6713C29.7189 32.198 28.9471 32.3671 28.2634 32.1034ZM14.6067 26.8365L9.15961 24.7358L8.81504 24.6029L8.66568 24.5453C7.40366 24.0586 7.05514 22.4069 8.00931 21.4347L12.7747 16.579C13.0572 16.2911 13.4159 16.11 13.7948 16.0481L13.7992 16.0474C13.8075 16.0461 13.8159 16.0448 13.8242 16.0436C14.1273 15.9991 14.4424 16.0306 14.7409 16.1445L16.469 16.8039L20.6992 18.418C21.9656 18.9012 22.3179 20.5567 21.3617 21.531L20.9535 21.947L16.579 26.4044C16.0621 26.9311 15.2903 27.1002 14.6067 26.8365ZM31.7343 10.9618L27.387 15.3915C26.8753 15.9129 26.1132 16.0843 25.4337 15.8308L19.9179 13.7736L19.5702 13.6439L19.4541 13.6006C18.1758 13.1238 17.8175 11.4547 18.7838 10.4776L23.5991 5.60868C23.8378 5.36739 24.1303 5.20176 24.4432 5.11935C24.4588 5.11526 24.4744 5.11136 24.4901 5.10768C24.8313 5.02737 25.1946 5.04522 25.5374 5.17083L31.518 7.36235C32.7314 7.80698 33.1249 9.32582 32.3474 10.3197C32.3032 10.3762 32.2552 10.431 32.2034 10.4838L31.7343 10.9618ZM45.391 16.2288L41.1683 20.5315C40.6566 21.0529 39.8945 21.2243 39.215 20.9709L33.6992 18.9136L33.2483 18.7455C31.9754 18.2707 31.6132 16.6121 32.5684 15.6322L36.3426 11.7601L37.406 10.6691C37.6053 10.4647 37.8431 10.3135 38.0994 10.2202C38.1289 10.2095 38.1586 10.1995 38.1885 10.1903C38.5617 10.0758 38.9684 10.0812 39.3502 10.2202L45.3799 12.4153C46.5781 12.8515 46.9797 14.3349 46.246 15.3303C46.1929 15.4023 46.1339 15.4718 46.0688 15.5381L45.391 16.2288Z" fill="#FFD388"/>
<path d="M50.2389 16.7698L31.004 36.3693C30.4856 36.8974 29.711 37.0659 29.0262 36.7992L5.74214 27.734L1.69595 26.1587C1.00331 25.889 0.587389 25.2683 0.512317 24.6029L0.523117 24.7259C0.771718 27.5591 0.917129 29.2163 2.27696 32.0764C2.35181 32.2338 2.40141 32.4019 2.45561 32.5675C2.62223 33.0769 2.9996 33.5185 3.5547 33.7347L30.8849 44.3752C31.5697 44.6418 32.3443 44.4734 32.8627 43.9452L55.0201 21.3679C55.1896 21.1951 55.3179 21.0012 55.4074 20.7962C55.4817 20.6258 55.4976 20.4365 55.4917 20.2502C55.3935 17.173 55.0898 15.4242 53.7021 12.5879C53.6733 13.0194 53.499 13.4478 53.1613 13.7919L50.2389 16.7698Z" fill="url(#paint0_linear_7_17)"/>
<path d="M45.391 16.2288L38.8016 13.7144L33.6992 18.9136L39.215 20.9709C39.8945 21.2243 40.6566 21.0529 41.1683 20.5315L45.391 16.2288Z" fill="#E8984F"/>
<path fill-rule="evenodd" clip-rule="evenodd" d="M2.27696 32.0764C2.33995 32.2089 2.38526 32.3496 2.43041 32.4897C2.43875 32.5156 2.44716 32.5417 2.45561 32.5675C2.40141 32.4019 2.35181 32.2338 2.27696 32.0764ZM25.1003 8.21712L24.4901 5.10768C24.8313 5.02737 25.1946 5.04522 25.5374 5.17083L31.518 7.36235C32.7314 7.80698 33.1249 9.32582 32.3474 10.3197C32.3032 10.3762 32.2552 10.431 32.2034 10.4838L31.7343 10.9618L25.1449 8.44753L25.1003 8.21712ZM38.0994 10.2202L38.6388 12.5879L38.8016 13.7144L45.391 16.2288L46.0688 15.5381C46.1339 15.4718 46.1929 15.4023 46.246 15.3303C46.9797 14.3349 46.5781 12.8515 45.3799 12.4153L39.3502 10.2202C38.9684 10.0812 38.5617 10.0758 38.1885 10.1903C38.1586 10.1995 38.1289 10.2095 38.0994 10.2202ZM20.9535 21.947L21.3617 21.531C22.3179 20.5567 21.9656 18.9012 20.6992 18.418L16.469 16.8039L14.7409 16.1445C14.4424 16.0306 14.1273 15.9991 13.8242 16.0436C13.8159 16.0448 13.8075 16.0461 13.7992 16.0474L13.7948 16.0481L14.2836 19.0306L14.3641 19.4327L20.9535 21.947Z" fill="#E3823D"/>
<path d="M28.0208 24.6996L34.6102 27.2139L35.0796 26.7357C36.0409 25.7561 35.6796 24.09 34.4037 23.6115C32.6213 22.943 30.5895 22.1763 28.4409 21.3624C28.0969 21.2321 27.7311 21.2109 27.387 21.2893L28.0208 24.6996Z" fill="#E3823D"/>
<path d="M34.6102 27.2139L28.0208 24.6996L22.8164 30.0027L28.2634 32.1034C28.9471 32.3671 29.7189 32.198 30.2357 31.6713L34.6102 27.2139Z" fill="#E8984F"/>
<path d="M20.9535 21.947L14.3641 19.4327L9.15961 24.7358L14.6067 26.8365C15.2903 27.1002 16.0621 26.9311 16.579 26.4044L20.9535 21.947Z" fill="#E8984F"/>
<path d="M25.1449 8.44753L19.9179 13.7736L25.4337 15.8308C26.1132 16.0843 26.8753 15.9129 27.387 15.3915L31.7343 10.9618L25.1449 8.44753Z" fill="#E8984F"/>
<path d="M19.9179 13.7736L25.1449 8.44753L25.1003 8.21712L24.4901 5.10768C24.4744 5.11136 24.4588 5.11526 24.4432 5.11935C24.1303 5.20176 23.8378 5.36739 23.5991 5.60868L18.7838 10.4776C17.8175 11.4547 18.1758 13.1238 19.4541 13.6006L19.5702 13.6439L19.9179 13.7736Z" fill="#A73D23"/>
<path d="M9.15961 24.7358L14.3641 19.4327L14.2836 19.0306L13.7948 16.0481C13.4159 16.11 13.0572 16.2911 12.7747 16.579L8.00931 21.4347C7.05514 22.4069 7.40366 24.0586 8.66568 24.5453L8.81504 24.6029L9.15961 24.7358Z" fill="#A73D23"/>
<path d="M22.8164 30.0027L28.0208 24.6996L27.387 21.2893C27.3689 21.2934 27.3509 21.2978 27.333 21.3025C27.0157 21.3849 26.7191 21.5528 26.4781 21.7984L21.6661 26.7016C20.7119 27.6738 21.0604 29.3255 22.3225 29.8122L22.8164 30.0027Z" fill="#A73D23"/>
<path d="M33.6992 18.9136L38.8016 13.7144L38.6388 12.5879L38.0994 10.2202C37.8431 10.3135 37.6053 10.4647 37.406 10.6691L36.3426 11.7601L32.5684 15.6322C31.6132 16.6121 31.9754 18.2707 33.2483 18.7455L33.6992 18.9136Z" fill="#A73D23"/>
<defs>
<linearGradient id="paint0_linear_7_17" x1="-2.0046" y1="37.6163" x2="61.4962" y2="31.2292" gradientUnits="userSpaceOnUse">
<stop stop-color="#E3823D"/>
<stop offset="1" stop-color="#A73D23"/>
</linearGradient>
</defs>
</svg>
